<svg id="Group_1226" data-name="Group 1226" xmlns="http://www.w3.org/2000/svg" width="215.76" height="46.468" viewBox="0 0 215.76 46.468">
  <g id="Group_1226-2" data-name="Group 1226" transform="translate(124.4 21.389)">
    <path id="Path_335" data-name="Path 335" d="M223.964,70.692c0-2.5,1.522-4.929,4.13-4.929,2.579,0,4.1,2.424,4.1,4.929,0,2.345-1.265,4.926-4.1,4.926C225.228,75.618,223.964,73.037,223.964,70.692Zm-2.582,0a6.7,6.7,0,1,0,13.391,0c0-4-2.683-6.89-6.679-6.89C224.068,63.8,221.382,66.692,221.382,70.692Z" transform="translate(-221.382 -57.609)" fill="#53534b"/>
    <path id="Path_336" data-name="Path 336" d="M258.6,70.64c.049,2.063-1.033,4.978-3.641,4.978-2.732,0-3.87-2.708-3.87-4.9,0-2.452,1.269-4.953,3.9-4.953S258.652,68.264,258.6,70.64Zm-9.935,12.048h2.425V75.463h.052a4.711,4.711,0,0,0,4.387,2.116c3.971,0,5.652-3.507,5.652-7.121,0-3.534-1.861-6.656-5.678-6.656a5.279,5.279,0,0,0-4.466,2.166h-.049V64.112h-2.324Z" transform="translate(-232.027 -57.609)" fill="#53534b"/>
    <path id="Path_337" data-name="Path 337" d="M275.119,62.111h-3.094v-1.96h3.094V58.937c0-3.2.825-5.289,4.41-5.289a9.82,9.82,0,0,1,1.626.156l-.1,1.96a3.87,3.87,0,0,0-1.16-.154c-2.089,0-2.347,1.339-2.347,3.121v1.42h3.485v1.96h-3.485v11.2h-2.425Z" transform="translate(-241.139 -53.648)" fill="#53534b"/>
    <path id="Path_338" data-name="Path 338" d="M291.383,60.68h2.425V73.836h-2.425Zm2.582-2.942H291.23V55h2.735Z" transform="translate(-248.632 -54.177)" fill="#53534b"/>
    <path id="Path_339" data-name="Path 339" d="M302.732,54.154h2.429V65.689l5.287-5.341h3.3l-6.115,5.83,6.887,7.326h-3.481l-5.88-6.76V73.5h-2.429Z" transform="translate(-253.119 -53.845)" fill="#53534b"/>
    <path id="Path_340" data-name="Path 340" d="M327.4,70.692c0-2.5,1.522-4.929,4.13-4.929,2.579,0,4.1,2.424,4.1,4.929,0,2.345-1.265,4.926-4.1,4.926C328.66,75.618,327.4,73.037,327.4,70.692Zm-2.579,0a6.7,6.7,0,1,0,13.391,0c0-4-2.683-6.89-6.682-6.89C327.5,63.8,324.817,66.692,324.817,70.692Z" transform="translate(-261.735 -57.609)" fill="#53534b"/>
    <path id="Path_341" data-name="Path 341" d="M352.1,64.112h2.347V66.2h.052a4.731,4.731,0,0,1,4.309-2.4c3.406,0,4.928,2.117,4.928,5.651v7.816h-2.425v-6.81c0-3.069-.671-4.567-2.787-4.695-2.761,0-4,2.217-4,5.417v6.088H352.1Z" transform="translate(-272.38 -57.609)" fill="#53534b"/>
  </g>
  <g id="Group_1227" data-name="Group 1227">
    <path id="Path_342" data-name="Path 342" d="M24.145,33.477a2.258,2.258,0,0,1,1.868-.873,2.492,2.492,0,0,1,1.969.95,4.106,4.106,0,0,1,.812,2.741,3.987,3.987,0,0,1-.773,2.678A2.546,2.546,0,0,1,24.184,39a3.959,3.959,0,0,1-.734-2.633A4.7,4.7,0,0,1,24.145,33.477Zm5.033-2.616a6.6,6.6,0,0,0-2.242-2.11,6.487,6.487,0,0,0-3.051-.637A6.018,6.018,0,0,0,19.193,30.1,8.37,8.37,0,0,0,17.4,35.883a9.251,9.251,0,0,0,1.385,5.337,5.966,5.966,0,0,0,5.138,2.843,6.269,6.269,0,0,0,3.022-.755,6.351,6.351,0,0,0,1.8-1.558v2.423a3.669,3.669,0,0,1-.649,2.468,2.585,2.585,0,0,1-1.988.706,2.893,2.893,0,0,1-1.686-.467,1.98,1.98,0,0,1-.687-1.147l-5.9-.69c-.02.345-.029.62-.029.825A4.822,4.822,0,0,0,19.594,49.8q1.795,1.466,6.585,1.465a16.429,16.429,0,0,0,3.729-.381A6.638,6.638,0,0,0,32.6,49.646a6.127,6.127,0,0,0,1.692-2.24,6.879,6.879,0,0,0,.635-2.91l-.016-.718V28.459H29.178Z" transform="translate(-17.404 -22.297)" fill="#002860"/>
    <path id="Path_343" data-name="Path 343" d="M53.027,18.576h6.106v22.4H53.027Z" transform="translate(-31.302 -18.576)" fill="#002860"/>
    <path id="Path_344" data-name="Path 344" d="M79.739,37.973a4.212,4.212,0,0,1-.359,1.883,2.962,2.962,0,0,1-1.236,1.23,3.778,3.778,0,0,1-1.9.5,2.1,2.1,0,0,1-1.47-.464,1.6,1.6,0,0,1,.016-2.342,5.931,5.931,0,0,1,2.341-.991q1.359-.351,2.611-.809ZM75.394,32.3a4.1,4.1,0,0,1,2.243-.5,2.309,2.309,0,0,1,1.642.462,2.249,2.249,0,0,1,.46,1.612,19.61,19.61,0,0,1-2.148.739q-1.017.283-4.44.983a7.175,7.175,0,0,0-3.928,1.769,4.4,4.4,0,0,0-1.059,3.032A4.292,4.292,0,0,0,69.641,43.7a6.219,6.219,0,0,0,4.322,1.342,9.667,9.667,0,0,0,3.745-.67A7.728,7.728,0,0,0,80.095,42.7a6.716,6.716,0,0,0,.215,1.042,6.5,6.5,0,0,0,.443.959H86.5a8.269,8.269,0,0,1-.619-1.655,8.535,8.535,0,0,1-.147-1.8V34.082a7.156,7.156,0,0,0-.453-2.4,4.624,4.624,0,0,0-1.235-1.947,5.556,5.556,0,0,0-2.768-1.3,24.745,24.745,0,0,0-4.4-.313,18.2,18.2,0,0,0-3.185.26,7.327,7.327,0,0,0-2.314.735,5.254,5.254,0,0,0-1.79,1.555,6.824,6.824,0,0,0-.955,2.458l5.816.634A2.665,2.665,0,0,1,75.394,32.3Z" transform="translate(-37.207 -22.297)" fill="#002860"/>
    <path id="Path_345" data-name="Path 345" d="M108.719,18.576v6.162h3.341v4.548h-3.341v5.722a3.106,3.106,0,0,0,.2,1.365,1.133,1.133,0,0,0,1.056.515,6.551,6.551,0,0,0,1.877-.395l.44,4.322a19.186,19.186,0,0,1-4.215.508,7.2,7.2,0,0,1-3.345-.6,3.613,3.613,0,0,1-1.594-1.807,10.714,10.714,0,0,1-.521-3.93V29.285h-2.246V24.738h2.246V21.764Z" transform="translate(-49.771 -18.576)" fill="#002860"/>
    <path id="Path_346" data-name="Path 346" d="M131.034,18.576v6.162h3.338v4.548h-3.338v5.722a3.048,3.048,0,0,0,.2,1.365,1.119,1.119,0,0,0,1.053.515,6.531,6.531,0,0,0,1.877-.395l.44,4.322a19.19,19.19,0,0,1-4.218.508,7.2,7.2,0,0,1-3.341-.6,3.613,3.613,0,0,1-1.594-1.807,10.728,10.728,0,0,1-.521-3.93V29.285h-2.246V24.738h2.246V21.764Z" transform="translate(-58.476 -18.576)" fill="#002860"/>
    <path id="Path_347" data-name="Path 347" d="M153.589,33.589a2.437,2.437,0,0,1,1.939-.928,2.287,2.287,0,0,1,1.828.92,4.6,4.6,0,0,1,.743,2.885,4.885,4.885,0,0,1-.717,3.022,2.193,2.193,0,0,1-1.783.889,2.518,2.518,0,0,1-1.995-.928,4.332,4.332,0,0,1-.792-2.847A4.706,4.706,0,0,1,153.589,33.589Zm-.731,17.27V43.094a6.211,6.211,0,0,0,2.074,1.459,6.469,6.469,0,0,0,2.558.492,6.181,6.181,0,0,0,4.812-2.127,8.975,8.975,0,0,0,1.9-6.172,10.453,10.453,0,0,0-1.744-6.146,5.674,5.674,0,0,0-4.938-2.485,6.125,6.125,0,0,0-2.937.711,7.577,7.577,0,0,0-2.171,2.033v-2.4H146.7v22.4Z" transform="translate(-67.845 -22.297)" fill="#002860"/>
    <path id="Path_348" data-name="Path 348" d="M190.577,37.973a4.212,4.212,0,0,1-.359,1.883,2.971,2.971,0,0,1-1.239,1.23,3.767,3.767,0,0,1-1.9.5,2.1,2.1,0,0,1-1.47-.464,1.6,1.6,0,0,1,.016-2.342,5.929,5.929,0,0,1,2.337-.991c.906-.234,1.78-.5,2.615-.809ZM186.232,32.3a4.091,4.091,0,0,1,2.239-.5,2.3,2.3,0,0,1,1.643.462,2.235,2.235,0,0,1,.463,1.612,19.7,19.7,0,0,1-2.148.739c-.681.188-2.158.516-4.443.983a7.184,7.184,0,0,0-3.928,1.769A4.393,4.393,0,0,0,179,40.394a4.293,4.293,0,0,0,1.477,3.309,6.206,6.206,0,0,0,4.319,1.342,9.683,9.683,0,0,0,3.749-.67,7.778,7.778,0,0,0,2.386-1.678,6.385,6.385,0,0,0,.215,1.042,6.509,6.509,0,0,0,.443.959h5.741a8.512,8.512,0,0,1-.62-1.655,8.583,8.583,0,0,1-.146-1.8V34.082a7.081,7.081,0,0,0-.453-2.4,4.557,4.557,0,0,0-1.233-1.947,5.569,5.569,0,0,0-2.764-1.3,24.862,24.862,0,0,0-4.408-.313,18.238,18.238,0,0,0-3.188.26,7.391,7.391,0,0,0-2.314.735,5.275,5.275,0,0,0-1.786,1.555,6.88,6.88,0,0,0-.955,2.458l5.816.634A2.646,2.646,0,0,1,186.232,32.3Z" transform="translate(-80.448 -22.297)" fill="#002860"/>
    <path id="Path_349" data-name="Path 349" d="M213.856,28.459h5.695v2.676a6.353,6.353,0,0,1,1.7-2.373,3.505,3.505,0,0,1,2.155-.648,6.479,6.479,0,0,1,2.95.836l-1.881,4.458a4.808,4.808,0,0,0-1.715-.46,2.087,2.087,0,0,0-1.848,1.008q-.949,1.42-.949,5.31V44.7h-6.105Z" transform="translate(-94.046 -22.297)" fill="#002860"/>
    <path id="Path_350" data-name="Path 350" d="M237.748,18.576h6.219V30.091l4.544-5.353h7.494l-5.691,5.681,6.033,10.557h-6.871l-3.24-6.484-2.269,2.265v4.219h-6.219Z" transform="translate(-103.366 -18.576)" fill="#002860"/>
  </g>
</svg>
