<svg id="Ebene_1" data-name="Ebene 1" xmlns="http://www.w3.org/2000/svg" viewBox="0 0 1288 264.49"><defs><style>.cls-1{fill:#2ea3d6;}</style></defs><path class="cls-1" d="M7.83,169.29c8.1,5,24.9,10.46,37.94,10.46,13.32,0,18.83-4.37,18.83-11.6,0-7.53-4.35-11-20.57-16.51-29.54-9.56-40.84-25.78-40.55-42.3,0-26.65,22.6-46.62,57.64-46.62,16.51,0,31,4,39.69,8.38l-7.54,30.13c-6.37-3.18-18.82-7.82-30.69-7.82-10.72,0-16.81,4.35-16.81,11.3s5.51,10.43,22.88,16.52c26.95,9,38,22.87,38.24,43.43,0,26.65-20.56,46.06-61.12,46.06-18.54,0-35.05-4.34-45.77-10.13Z" transform="translate(0 -0.42)"/><path class="cls-1" d="M246.55,173.37c0,13.33.58,26.34,2.32,34.18h-39.7l-2.6-14.18h-.87c-9.27,11.26-23.75,17.35-40.55,17.35-28.68,0-45.78-20.84-45.78-43.46,0-36.77,33-54.15,83.14-54.15v-1.74c0-7.53-4-18.25-25.78-18.25-14.48,0-29.84,4.93-39.1,10.43l-8.12-28.1c9.85-5.5,29.26-12.73,55-12.73,47.23,0,62,27.8,62,61.11ZM157.9,49.09a19.72,19.72,0,0,1-19.7-19.7c0-11.29,8.69-19.69,20-19.69,11,0,19.12,8.4,19.12,19.69,0,10.72-8.11,19.7-19.12,19.7ZM204,140.63c-23.18,0-41.14,5.51-41.14,22.3,0,11.32,7.53,16.82,17.38,16.82,10.72,0,20-7.26,22.89-16.21A31.77,31.77,0,0,0,204,156Zm12.74-91.54c-11.3,0-19.41-9-19.41-19.7C197.3,18.1,205.7,9.7,217,9.7s19.42,8.4,19.42,19.69c0,10.72-8.11,19.7-19.42,19.7Z" transform="translate(0 -0.42)"/><path class="cls-1" d="M274.55,111.09c0-17.68-.56-32.45-1.15-45.2h38.23l2,19.7h.87c5.8-9.27,20-22.87,43.75-22.87,29,0,50.69,19.4,50.69,61.11v83.72h-44V129c0-18.24-6.37-30.69-22.31-30.69-12.17,0-19.41,8.4-22.59,16.51-1.16,2.9-1.45,6.94-1.45,11v81.69h-44Z" transform="translate(0 -0.42)"/><path class="cls-1" d="M485,27.37V65.89h31.58V98.34H485V149.9c0,17.1,4.36,24.92,17.39,24.92a53.63,53.63,0,0,0,13-1.18l.29,33.32c-5.52,2-16.24,3.76-28.4,3.76-14.18,0-26.06-4.9-33.31-12.15-8.11-8.4-12.16-22-12.16-42V98.34H423V65.89h18.83V39.24Z" transform="translate(0 -0.42)"/><path class="cls-1" d="M559,47.36c-14.81,0-24.35-10.44-24.35-23.48,0-13.32,9.86-23.46,24.91-23.46s24.32,10.14,24.62,23.46c0,13-9.55,23.48-24.91,23.48ZM537.22,207.55V65.89h44V207.55Z" transform="translate(0 -0.42)"/><path class="cls-1" d="M609.6,169.29c8.12,5,24.91,10.46,37.95,10.46,13.31,0,18.83-4.37,18.83-11.6,0-7.53-4.36-11-20.57-16.51-29.55-9.56-40.84-25.78-40.55-42.3,0-26.65,22.58-46.62,57.64-46.62,16.51,0,31,4,39.69,8.38L695,101.23c-6.35-3.18-18.82-7.82-30.69-7.82-10.72,0-16.8,4.35-16.8,11.3s5.5,10.43,22.9,16.52c26.92,9,37.93,22.87,38.22,43.43,0,26.65-20.58,46.06-61.12,46.06-18.54,0-35.06-4.34-45.77-10.13Z" transform="translate(0 -0.42)"/><path class="cls-1" d="M729.81,113.4c0-18.54-.58-34.19-1.15-47.51h38.22l2,19.7h.57c10.43-14.77,26.67-22.87,47.24-22.87,31,0,58.81,26.92,58.81,72.12,0,51.58-32.76,75.88-64.33,75.88-17.09,0-30.41-6.93-36.79-16.22h-.58v70.41h-44Zm44,33.33a44.13,44.13,0,0,0,.88,9.28c2.88,11.85,13,20.83,25.77,20.83,19.13,0,30.42-15.92,30.42-40,0-22.58-10.13-39.69-29.83-39.69-12.47,0-23.48,9.27-26.36,22.32a32.29,32.29,0,0,0-.88,7.81Z" transform="translate(0 -0.42)"/><path class="cls-1" d="M1014.37,173.37c0,13.33.58,26.34,2.31,34.18H977l-2.58-14.18h-.86c-9.28,11.26-23.79,17.35-40.58,17.35-28.68,0-45.77-20.84-45.77-43.46,0-36.77,33-54.15,83.15-54.15v-1.74c0-7.53-4.06-18.25-25.78-18.25-14.48,0-29.84,4.93-39.11,10.43l-8.12-28.1c9.84-5.5,29.25-12.73,55-12.73,47.21,0,62,27.8,62,61.11Zm-42.58-32.74c-23.18,0-41.14,5.51-41.14,22.3,0,11.32,7.54,16.82,17.36,16.82,10.74,0,20-7.26,22.89-16.21a30.76,30.76,0,0,0,.89-7.53Z" transform="translate(0 -0.42)"/><path class="cls-1" d="M1042.49,112.53c0-20.86-.3-34.47-1.17-46.64H1079l1.72,26.37h1.18c7.22-20.86,24.34-29.54,38.22-29.54a42.91,42.91,0,0,1,9.26.86V105a72.06,72.06,0,0,0-12.17-1.16c-16.2,0-27.22,8.4-30.11,22.31a50.42,50.42,0,0,0-.86,9.85v71.55h-44Z" transform="translate(0 -0.42)"/><path class="cls-1" d="M1188.33,125.86h.6a194.89,194.89,0,0,1,10.13-17.1l28.67-42.87h53l-50.69,57.36,57.94,84.3h-54.19l-34.46-58.21-11,14.2v44h-44V1.87h44Z" transform="translate(0 -0.42)"/></svg>